P3
2 2
256
0   150 150 255 0   255 
137 200 86  255 230 20  
