P3
2 2
255
0
0
0
255
255
255
137
137
137
255
255
255
