P3
2 2
255
150
150
150
255
255
255
86
86
86
20
20
20
