P3
2 2
255
255
0
255
0
150
150
255
230
20
137
200
86
