P3
2 2
255
40
190
190
255
40
255
177
240
126
255
255
60
