P3
2 2
255
150
150
150
255
255
255
200
200
200
255
255
255
