P3
2 2
255
143
128
99
148
131
102
223
199
155
255
250
194
