P3
2 2
255
0
0
0
0
0
255
137
200
86
255
230
20
