P3
2 2
255
150
150
150
0
0
0
200
200
200
230
230
230
