P3
2 2
255
100
100
100
170
170
170
141
141
141
168
168
168
