P3
2 2
255
64
76
81
104
60
90
82
97
58
112
91
57
