P3
2 2
255
0
50
50
155
0
155
37
100
0
155
130
0
