P3
2 2
255
161
255
240
255
145
255
255
255
192
255
255
142
