P3
2 2
255
118
118
118
72
72
72
178
178
178
220
220
220
